# xmcd CD database file
#
# Track frame offsets:
#	150
#	21787
#	36395
#	71695
#	96920
#	111820
#	131752
#	150415
#	173095
#	195807
#	211020
#	227457
#	243170
#	268352
#	281790
#	288777
#	304230
#	316245
#	330287
#	347435
#
# Disc length: 4791 seconds
#
# Revision: 0
# Processed by: cddbd v1.5.2PL0 Copyright (c) Steve Scherf et al.
# Submitted via: CDex 1.70beta2
#
DISCID=1112b514
DTITLE=Bob Greene's - Wold Of jelly Roll Morton )CC18)
DYEAR=1982
DGENRE=Jazz
TTITLE0=My Little Girl
TTITLE1=Steamboat Stomp
TTITLE2=Just A Closer Walk With Thee
TTITLE3=Down In Hony Tonk Town
TTITLE4=Jelly Roll Blues
TTITLE5=Mr. Jelly Lord
TTITLE6=My Gal Sal
TTITLE7=Buddy Bolden's Blues
TTITLE8=You Tell Me Your Dreams
TTITLE9=Black Bottom Stomp
TTITLE10=Smoke House Blues
TTITLE11=The Chant
TTITLE12=Winin' Boy Blues
TTITLE13=Grandpa's Spells
TTITLE14=London Blues (solo)
TTITLE15=London Blues
TTITLE16=Milneberg Joys
TTITLE17=Cannonball Blues
TTITLE18=Kansas City Stomps
TTITLE19=Till We Meet Again
EXTD=YEAR: 1982
EXTT0=
EXTT1=
EXTT2=
EXTT3=
EXTT4=
EXTT5=
EXTT6=
EXTT7=
EXTT8=
EXTT9=
EXTT10=
EXTT11=
EXTT12=
EXTT13=
EXTT14=
EXTT15=
EXTT16=
EXTT17=
EXTT18=
EXTT19=
PLAYORDER=
